<?xml version="1.0" standalone="no"?>
<!DOCTYPE svg PUBLIC "-//W3C//DTD SVG 20010904//EN"
 "http://www.w3.org/TR/2001/REC-SVG-20010904/DTD/svg10.dtd">
<svg version="1.0" xmlns="http://www.w3.org/2000/svg"
 width="576.000000pt" height="576.000000pt" viewBox="0 0 576.000000 576.000000"
 preserveAspectRatio="xMidYMid meet">
<metadata>
Created by potrace 1.14, written by Peter Selinger 2001-2017
</metadata>
<g transform="translate(0.000000,576.000000) scale(0.100000,-0.100000)"
fill="#000000" stroke="none">
<path d="M2822 5301 c-23 -42 -53 -94 -66 -116 -12 -22 -34 -61 -48 -86 -46
-81 -53 -94 -58 -99 -3 -3 -14 -21 -24 -40 -10 -19 -44 -78 -74 -130 -30 -52
-63 -111 -74 -130 -10 -19 -23 -42 -28 -50 -13 -20 -83 -142 -230 -400 -68
-118 -131 -227 -142 -242 -11 -16 -16 -28 -12 -28 4 0 0 -8 -8 -17 -9 -10 -27
-38 -40 -63 -29 -52 -59 -104 -100 -175 -16 -27 -32 -58 -35 -67 -3 -10 -9
-18 -14 -18 -5 0 -9 -4 -9 -9 0 -5 -15 -36 -34 -68 -103 -175 -246 -424 -246
-427 0 -2 -18 -34 -40 -70 -22 -36 -40 -70 -40 -76 0 -5 -4 -10 -9 -10 -5 0
-12 -9 -16 -19 -3 -11 -60 -114 -126 -228 -67 -114 -134 -231 -149 -258 -53
-95 -211 -370 -221 -385 -5 -8 -12 -23 -15 -32 -4 -10 -10 -18 -15 -18 -5 0
-9 -4 -9 -9 0 -6 -41 -80 -90 -165 -50 -86 -90 -161 -90 -166 0 -6 -4 -10 -8
-10 -4 0 -15 -15 -23 -32 -8 -18 -75 -136 -148 -263 -155 -267 -157 -271 -202
-350 -19 -33 -41 -72 -49 -86 -24 -43 -221 -383 -230 -399 -57 -93 -97 -170
-92 -173 4 -2 247 -3 540 -3 l534 1 52 91 c29 50 56 98 60 105 3 8 14 28 24
44 11 17 55 93 99 170 45 77 90 156 102 175 11 19 24 42 28 50 4 8 31 55 60
104 29 49 53 90 53 93 0 2 25 46 55 98 31 52 55 97 55 101 -1 4 2 10 7 13 5 3
50 78 100 166 50 88 100 176 112 195 11 19 50 87 86 150 36 63 76 133 89 155
12 22 50 87 83 145 33 58 86 149 117 202 31 53 56 102 56 107 0 6 3 11 8 11 4
0 12 10 18 23 30 60 60 112 67 115 4 2 7 8 7 13 0 5 17 37 38 71 21 35 41 70
45 78 4 8 15 29 25 45 10 17 30 51 44 76 46 83 53 94 58 99 3 3 11 16 18 30
12 25 21 40 77 135 16 28 38 66 50 86 74 132 90 159 96 159 3 0 48 -73 100
-162 52 -90 99 -170 104 -180 6 -9 17 -29 26 -45 65 -114 441 -764 459 -793 9
-15 39 -67 95 -165 16 -27 35 -62 44 -77 64 -107 111 -192 111 -199 0 -5 5 -9
10 -9 6 0 10 -4 10 -10 0 -5 27 -55 60 -111 33 -55 60 -103 60 -105 0 -2 15
-27 33 -56 17 -30 39 -66 47 -81 14 -25 163 -283 290 -502 29 -49 66 -115 83
-145 16 -30 36 -62 43 -71 8 -8 14 -19 14 -23 0 -6 73 -134 101 -176 5 -8 12
-23 15 -33 4 -9 10 -17 15 -17 5 0 9 -5 9 -11 0 -6 16 -38 37 -72 l36 -62 539
0 c296 0 538 3 538 7 0 4 -13 30 -30 56 -16 27 -30 54 -30 61 0 6 -4 11 -10
11 -5 0 -10 4 -10 9 0 8 -62 118 -91 161 -5 8 -15 27 -22 43 -6 15 -15 27 -19
27 -4 0 -8 4 -8 10 0 5 -14 33 -31 62 -33 55 -54 91 -90 156 -30 53 -118 204
-129 222 -5 8 -35 60 -67 115 -32 55 -62 108 -68 117 -5 9 -17 29 -26 45 -22
40 -173 302 -198 344 -11 19 -32 54 -46 79 -47 83 -96 168 -142 245 -16 28
-32 57 -36 65 -4 8 -16 29 -26 45 -10 17 -60 102 -111 190 -51 88 -102 176
-114 196 -81 140 -495 856 -512 886 -11 21 -59 103 -105 183 -47 80 -88 152
-92 160 -4 8 -15 29 -26 45 -10 17 -28 47 -40 68 -11 20 -29 52 -40 70 -10 17
-64 110 -120 206 -55 96 -101 176 -101 178 0 2 -17 32 -38 66 -48 80 -55 91
-93 157 -30 52 -43 74 -88 153 -61 108 -116 203 -121 207 -3 3 -13 21 -24 40
-10 19 -28 51 -39 70 -11 19 -33 60 -50 90 -16 30 -36 62 -43 71 -8 8 -14 19
-14 23 0 4 -8 18 -18 31 l-18 23 -42 -77z"/>
<path d="M2807 1883 c-6 -16 -15 -32 -20 -38 -4 -5 -37 -62 -73 -125 -36 -63
-147 -256 -245 -428 -162 -281 -178 -314 -168 -335 23 -44 263 -463 295 -517
l34 -55 532 1 c293 1 537 2 542 3 4 0 1 12 -8 26 -9 13 -28 46 -43 72 -14 26
-33 60 -42 75 -24 40 -174 300 -187 323 -6 11 -20 36 -31 55 -22 38 -234 405
-264 458 -11 18 -38 66 -61 105 -22 40 -46 82 -52 94 -6 13 -14 23 -18 23 -5
0 -8 5 -8 11 0 15 -154 279 -163 279 -4 0 -13 -12 -20 -27z"/>
</g>
</svg>
